<svg width="482" height="56" viewBox="0 0 482 56" fill="none" xmlns="http://www.w3.org/2000/svg">
<rect width="482" height="56" rx="8" fill="#24222E"/>
<path d="M138.844 29.7812V29.5547H141.289V29.7422C141.284 30.2995 141.461 30.7188 141.82 31C142.18 31.276 142.677 31.4141 143.312 31.4141C143.948 31.4141 144.435 31.2839 144.773 31.0234C145.117 30.763 145.289 30.4193 145.289 29.9922C145.289 29.5443 145.125 29.2005 144.797 28.9609C144.474 28.7161 143.763 28.4505 142.664 28.1641C141.471 27.8568 140.565 27.4349 139.945 26.8984C139.326 26.362 139.016 25.6302 139.016 24.7031C139.016 23.6979 139.396 22.8958 140.156 22.2969C140.922 21.6979 141.951 21.3984 143.242 21.3984C144.529 21.3984 145.56 21.7083 146.336 22.3281C147.117 22.9427 147.508 23.763 147.508 24.7891V25H145.102V24.8281C145.102 24.3438 144.945 23.9557 144.633 23.6641C144.326 23.3724 143.867 23.2266 143.258 23.2266C142.643 23.2266 142.19 23.3438 141.898 23.5781C141.612 23.8073 141.469 24.1198 141.469 24.5156C141.469 24.9062 141.625 25.2031 141.938 25.4062C142.25 25.6094 142.956 25.8568 144.055 26.1484C145.227 26.4661 146.13 26.8984 146.766 27.4453C147.406 27.9922 147.729 28.7812 147.734 29.8125C147.734 30.8906 147.331 31.7292 146.523 32.3281C145.716 32.9271 144.648 33.2266 143.32 33.2266C142.003 33.2266 140.927 32.9323 140.094 32.3438C139.26 31.7552 138.844 30.901 138.844 29.7812ZM148.992 27.6641V26.9609C148.992 25.1432 149.464 23.763 150.406 22.8203C151.354 21.8724 152.573 21.3984 154.062 21.3984C155.552 21.3984 156.773 21.8724 157.727 22.8203C158.68 23.763 159.156 25.1432 159.156 26.9609V27.6641C159.156 29.4818 158.68 30.8646 157.727 31.8125C156.773 32.7552 155.552 33.2266 154.062 33.2266C152.573 33.2266 151.354 32.7552 150.406 31.8125C149.464 30.8646 148.992 29.4818 148.992 27.6641ZM151.461 27.9141C151.461 29.0859 151.695 29.9583 152.164 30.5312C152.638 31.099 153.271 31.3828 154.062 31.3828C154.859 31.3828 155.495 31.099 155.969 30.5312C156.448 29.9583 156.688 29.0859 156.688 27.9141V26.7188C156.688 25.5417 156.448 24.6693 155.969 24.1016C155.495 23.5286 154.859 23.2422 154.062 23.2422C153.271 23.2422 152.638 23.5286 152.164 24.1016C151.695 24.6693 151.461 25.5417 151.461 26.7188V27.9141ZM161.117 33V21.625H165.281C166.599 21.625 167.625 21.9401 168.359 22.5703C169.099 23.2005 169.469 24.0807 169.469 25.2109C169.469 26.3568 169.096 27.2552 168.352 27.9062C167.612 28.5521 166.586 28.875 165.273 28.875H163.531V33H161.117ZM163.531 27.1094H165.172C165.865 27.1094 166.352 26.9401 166.633 26.6016C166.914 26.263 167.057 25.8099 167.062 25.2422C167.062 24.6745 166.919 24.2292 166.633 23.9062C166.352 23.5833 165.865 23.4219 165.172 23.4219H163.531V27.1094ZM167.312 33L164.664 27.7656L167.188 27.625L170.008 33H167.312ZM169.695 23.4609V21.625H178.844V23.4609H175.477V33H173.062V23.4609H169.695ZM180.195 33V21.625H187.836V23.4609H182.586V26.25H187.133V28.0469H182.586V31.1719H187.922V33H180.195ZM188.203 33L192.492 21.5703H195.039L199.391 33H196.805L193.914 24.9766C193.852 24.7995 193.799 24.6302 193.758 24.4688C193.721 24.3073 193.688 24.1458 193.656 23.9844H193.594C193.568 24.1458 193.534 24.3073 193.492 24.4688C193.456 24.6302 193.406 24.7995 193.344 24.9766L190.453 33H188.203ZM190.641 30.5L191.188 28.7266H196.219L196.766 30.5H190.641ZM200.367 33V21.625H204.531C205.849 21.625 206.875 21.9401 207.609 22.5703C208.349 23.2005 208.719 24.0807 208.719 25.2109C208.719 26.3568 208.346 27.2552 207.602 27.9062C206.862 28.5521 205.836 28.875 204.523 28.875H202.781V33H200.367ZM202.781 27.1094H204.422C205.115 27.1094 205.602 26.9401 205.883 26.6016C206.164 26.263 206.307 25.8099 206.312 25.2422C206.312 24.6745 206.169 24.2292 205.883 23.9062C205.602 23.5833 205.115 23.4219 204.422 23.4219H202.781V27.1094ZM206.562 33L203.914 27.7656L206.438 27.625L209.258 33H206.562ZM214.461 33V21.625H217.023L221.055 28.6484C221.143 28.8047 221.219 28.9531 221.281 29.0938C221.349 29.2344 221.411 29.3854 221.469 29.5469H221.531C221.526 29.375 221.521 29.2109 221.516 29.0547C221.516 28.8932 221.516 28.724 221.516 28.5469V21.625H223.602V33H220.984L216.992 26.0391C216.904 25.8776 216.826 25.724 216.758 25.5781C216.695 25.4271 216.635 25.2708 216.578 25.1094H216.523C216.534 25.2865 216.539 25.4635 216.539 25.6406C216.544 25.8177 216.547 25.9922 216.547 26.1641V33H214.461ZM225.555 27.6641V26.9609C225.555 25.1432 226.026 23.763 226.969 22.8203C227.917 21.8724 229.135 21.3984 230.625 21.3984C232.115 21.3984 233.336 21.8724 234.289 22.8203C235.242 23.763 235.719 25.1432 235.719 26.9609V27.6641C235.719 29.4818 235.242 30.8646 234.289 31.8125C233.336 32.7552 232.115 33.2266 230.625 33.2266C229.135 33.2266 227.917 32.7552 226.969 31.8125C226.026 30.8646 225.555 29.4818 225.555 27.6641ZM228.023 27.9141C228.023 29.0859 228.258 29.9583 228.727 30.5312C229.201 31.099 229.833 31.3828 230.625 31.3828C231.422 31.3828 232.057 31.099 232.531 30.5312C233.01 29.9583 233.25 29.0859 233.25 27.9141V26.7188C233.25 25.5417 233.01 24.6693 232.531 24.1016C232.057 23.5286 231.422 23.2422 230.625 23.2422C229.833 23.2422 229.201 23.5286 228.727 24.1016C228.258 24.6693 228.023 25.5417 228.023 26.7188V27.9141ZM236.18 21.625H238.797L241.539 29.3359C241.591 29.4766 241.63 29.6094 241.656 29.7344C241.688 29.8542 241.721 29.9948 241.758 30.1562H241.82C241.857 29.9948 241.891 29.8542 241.922 29.7344C241.958 29.6094 242 29.4766 242.047 29.3359L244.844 21.625H247.148L242.953 33.0391H240.391L236.18 21.625ZM246.422 33L250.711 21.5703H253.258L257.609 33H255.023L252.133 24.9766C252.07 24.7995 252.018 24.6302 251.977 24.4688C251.94 24.3073 251.906 24.1458 251.875 23.9844H251.812C251.786 24.1458 251.753 24.3073 251.711 24.4688C251.674 24.6302 251.625 24.7995 251.562 24.9766L248.672 33H246.422ZM248.859 30.5L249.406 28.7266H254.438L254.984 30.5H248.859ZM258.586 33V21.625H261.688L264.375 28.9531C264.443 29.1302 264.497 29.2969 264.539 29.4531C264.586 29.6094 264.625 29.7839 264.656 29.9766H264.711C264.742 29.7839 264.781 29.6094 264.828 29.4531C264.875 29.2969 264.93 29.1302 264.992 28.9531L267.695 21.625H270.836V33H268.453V25.7656C268.453 25.5885 268.456 25.3958 268.461 25.1875C268.471 24.974 268.484 24.7812 268.5 24.6094H268.438C268.411 24.7812 268.372 24.974 268.32 25.1875C268.273 25.3958 268.219 25.5885 268.156 25.7656L265.5 33H263.523L260.883 25.7656C260.82 25.5885 260.763 25.3958 260.711 25.1875C260.664 24.974 260.625 24.7812 260.594 24.6094H260.531C260.552 24.7812 260.565 24.974 260.57 25.1875C260.576 25.3958 260.578 25.5885 260.578 25.7656V33H258.586ZM273.211 33V21.625H280.852V23.4609H275.602V26.25H280.148V28.0469H275.602V31.1719H280.938V33H273.211ZM282.617 33V21.625H285.18L289.211 28.6484C289.299 28.8047 289.375 28.9531 289.438 29.0938C289.505 29.2344 289.568 29.3854 289.625 29.5469H289.688C289.682 29.375 289.677 29.2109 289.672 29.0547C289.672 28.8932 289.672 28.724 289.672 28.5469V21.625H291.758V33H289.141L285.148 26.0391C285.06 25.8776 284.982 25.724 284.914 25.5781C284.852 25.4271 284.792 25.2708 284.734 25.1094H284.68C284.69 25.2865 284.695 25.4635 284.695 25.6406C284.701 25.8177 284.703 25.9922 284.703 26.1641V33H282.617ZM293.008 23.4609V21.625H302.156V23.4609H298.789V33H296.375V23.4609H293.008ZM303.508 33V21.625H311.148V23.4609H305.898V26.25H310.445V28.0469H305.898V31.1719H311.234V33H303.508Z" fill="#D9D9D9"/>
<path fill-rule="evenodd" clip-rule="evenodd" d="M332 18.75C326.891 18.75 322.75 22.8914 322.75 28C322.75 33.1086 326.891 37.25 332 37.25C337.109 37.25 341.25 33.1086 341.25 28C341.25 27.5858 341.586 27.25 342 27.25C342.414 27.25 342.75 27.5858 342.75 28C342.75 33.937 337.937 38.75 332 38.75C326.063 38.75 321.25 33.937 321.25 28C321.25 22.0629 326.063 17.25 332 17.25C334.794 17.25 337.339 18.3164 339.25 20.0627V18.5C339.25 18.0858 339.586 17.75 340 17.75C340.414 17.75 340.75 18.0858 340.75 18.5V22C340.75 22.4142 340.414 22.75 340 22.75H336.5C336.086 22.75 335.75 22.4142 335.75 22C335.75 21.5858 336.086 21.25 336.5 21.25H338.325C336.67 19.6987 334.446 18.75 332 18.75Z" fill="white"/>
<path d="M335.945 28.3577C335.769 28.9844 334.933 29.4273 333.263 30.3131C331.648 31.1693 330.841 31.5975 330.19 31.4254C329.921 31.3542 329.676 31.2191 329.478 31.0329C329 30.5827 329 29.7094 329 27.9629C329 26.2163 329 25.3431 329.478 24.8928C329.676 24.7067 329.921 24.5716 330.19 24.5004C330.841 24.3283 331.648 24.7565 333.263 25.6127C334.933 26.4985 335.769 26.9414 335.945 27.5681C336.018 27.8268 336.018 28.099 335.945 28.3577Z" stroke="white" stroke-width="1.5" stroke-linecap="round" stroke-linejoin="round"/>
</svg>
